<?xml version="1.0" ?><svg data-name="Layer 2" id="Layer_2" viewBox="0 0 2010 2010" xmlns="http://www.w3.org/2000/svg" xmlns:xlink="http://www.w3.org/1999/xlink"><defs><style>.cls-1{fill:url(#linear-gradient);}.cls-2{fill:url(#linear-gradient-2);}</style><linearGradient gradientUnits="userSpaceOnUse" id="linear-gradient" x1="591.48" x2="1414.22" y1="1004.98" y2="1004.98"><stop offset="0" stop-color="#69bbff"/><stop offset="1" stop-color="#1798ff"/></linearGradient><linearGradient gradientUnits="userSpaceOnUse" id="linear-gradient-2" x1="292.17" x2="2416.6" y1="2003.27" y2="-988.27"><stop offset="0.06" stop-color="#ff6800"/><stop offset="1" stop-color="#fff100"/></linearGradient></defs><path class="cls-1" d="M1002.85,1543.1c-75.56,0-149-19-212.48-55.07-60.7-34.47-111.28-83.69-146.27-142.35-32-53.58-50.07-114-52.37-174.74-2.44-64.31,13-129.22,44.55-187.7L873.63,543.7a145.65,145.65,0,0,1,128.72-76.84h.1a145.66,145.66,0,0,1,128.72,76.66l238,439.25c31.69,58.49,47.19,123.42,44.82,187.78-2.24,60.79-20.31,121.26-52.25,174.9-35,58.72-85.55,108-146.28,142.51C1152,1524,1078.47,1543.1,1002.85,1543.1Z"/><path class="cls-2" d="M1003.17,1893.42a75,75,0,0,1,0-150,737.92,737.92,0,0,0,228.18-36,75,75,0,1,1,46.36,142.66,888,888,0,0,1-274.48,43.34Zm-251.29-41.31a74.77,74.77,0,0,1-22-3.33c-91.22-28-175.32-69-250-121.79a75,75,0,0,1,86.62-122.46c61.63,43.59,131.41,77.53,207.39,100.86a75,75,0,0,1-22,146.72ZM1481.2,1738A75,75,0,0,1,1437,1602.39a741.79,741.79,0,0,0,163.42-163.46,75,75,0,1,1,121.29,88.25,891.6,891.6,0,0,1-196.42,196.48A74.65,74.65,0,0,1,1481.2,1738ZM343.35,1561a74.91,74.91,0,0,1-61.23-31.6c-53.42-75.27-94.62-159.35-122.45-249.89a75,75,0,1,1,143.38-44.07c23.12,75.24,57.24,144.93,101.4,207.15A75,75,0,0,1,343.35,1561Zm1433.37-229.63a75,75,0,0,1-71.35-98.18A737.85,737.85,0,0,0,1741.29,1005v-1.33a75,75,0,0,1,74.85-75.15h.16a75,75,0,0,1,75,74.85V1005A887.75,887.75,0,0,1,1848,1279.52,75,75,0,0,1,1776.72,1331.38Zm-1583-250.73a75,75,0,0,1-75-75v-.73a933.72,933.72,0,0,1,40.51-273.08,75,75,0,0,1,143.46,43.83,783.78,783.78,0,0,0-34,229.25v.73A75,75,0,0,1,193.71,1080.65Zm1582.54-253.4A75,75,0,0,1,1705,775.51,734.93,734.93,0,0,0,1599.65,570a75,75,0,1,1,121.13-88.46,884.35,884.35,0,0,1,126.78,247.41,75.08,75.08,0,0,1-71.31,98.31ZM342.38,600.11a75,75,0,0,1-61.18-118.3A829.25,829.25,0,0,1,478.52,283.9a75,75,0,0,1,86.87,122.29A679.44,679.44,0,0,0,403.69,568.4,74.94,74.94,0,0,1,342.38,600.11Zm1137.54-179a74.65,74.65,0,0,1-44-14.3,735.16,735.16,0,0,0-205.87-104.67,75,75,0,1,1,46.11-142.73,884.22,884.22,0,0,1,247.84,126,75,75,0,0,1-44.11,135.71ZM750.4,308.31a75,75,0,0,1-22.12-146.68c84.09-26,175.06-41.12,270.38-45a75,75,0,1,1,6.08,149.88c-82.36,3.34-160.47,16.27-232.18,38.43A75.22,75.22,0,0,1,750.4,308.31Z"/></svg>