<?xml version="1.0" ?><svg data-name="Layer 2" id="Layer_2" viewBox="0 0 2010 2010" xmlns="http://www.w3.org/2000/svg" xmlns:xlink="http://www.w3.org/1999/xlink"><defs><style>.cls-1{fill:url(#linear-gradient);}.cls-2{fill:url(#linear-gradient-2);}.cls-3{fill:url(#linear-gradient-3);}.cls-4{fill:url(#linear-gradient-4);}</style><linearGradient gradientUnits="userSpaceOnUse" id="linear-gradient" x1="994" x2="1996.85" y1="1087.45" y2="-664.58"><stop offset="0" stop-color="#69bbff"/><stop offset="1" stop-color="#9de0f4"/></linearGradient><linearGradient gradientUnits="userSpaceOnUse" id="linear-gradient-2" x1="1996.95" x2="952.81" y1="68.32" y2="1136.06"><stop offset="0" stop-color="#69bbff"/><stop offset="1" stop-color="#1798ff"/></linearGradient><linearGradient id="linear-gradient-3" x1="1803.37" x2="759.23" xlink:href="#linear-gradient-2" y1="-120.98" y2="946.76"/><linearGradient gradientUnits="userSpaceOnUse" id="linear-gradient-4" x1="299.2" x2="1703.37" y1="841.69" y2="841.69"><stop offset="0.06" stop-color="#ff6800"/><stop offset="1" stop-color="#fff100"/></linearGradient></defs><path class="cls-1" d="M883.21,1905c-107.87,0-195.62-87.75-195.62-195.62a77.2,77.2,0,0,1,154.39,0,41.23,41.23,0,0,0,82.46,0V407.47a77.2,77.2,0,0,1,154.39,0V1709.36C1078.83,1817.23,991.07,1905,883.21,1905Z"/><path class="cls-2" d="M1607.38,604.3h0c-68.27-3.54-112.15-74-85.21-136.84l73.29-170.94a29.67,29.67,0,0,1,28.8-17.94h0a29.67,29.67,0,0,1,26.8,20.82L1706.29,477C1726.59,542.29,1675.66,607.84,1607.38,604.3Z"/><path class="cls-3" d="M1398.37,430.78h0c-68.28-3.54-112.16-74-85.22-136.84L1386.44,123a29.69,29.69,0,0,1,28.81-17.94h0a29.67,29.67,0,0,1,26.8,20.82l55.22,177.6C1517.58,368.77,1466.65,434.32,1398.37,430.78Z"/><path class="cls-4" d="M1626.17,1209.37H376.39a77.19,77.19,0,0,1-77.19-77.19c0-126.14,29.72-240,88.34-338.4a600.67,600.67,0,0,1,99.84-125.53,648.49,648.49,0,0,1,125.43-93.9c57.24-33.05,120.29-58.44,187.4-75.47a825.24,825.24,0,0,1,402.14,0c67.11,17,130.17,42.42,187.41,75.47a649.1,649.1,0,0,1,125.43,93.9A600.67,600.67,0,0,1,1615,793.78c58.62,98.41,88.34,212.26,88.34,338.4A77.2,77.2,0,0,1,1626.17,1209.37Z"/></svg>