<?xml version="1.0" ?><svg data-name="Layer 2" id="Layer_2" viewBox="0 0 2010 2010" xmlns="http://www.w3.org/2000/svg" xmlns:xlink="http://www.w3.org/1999/xlink"><defs><style>.cls-1{fill:url(#linear-gradient);}.cls-2{fill:url(#linear-gradient-2);}.cls-3{fill:url(#linear-gradient-3);}.cls-4{fill:url(#linear-gradient-4);}.cls-5{fill:url(#linear-gradient-5);}</style><linearGradient gradientUnits="userSpaceOnUse" id="linear-gradient" x1="1931.57" x2="580.51" y1="-711.46" y2="1533.58"><stop offset="0" stop-color="#69bbff"/><stop offset="1" stop-color="#1798ff"/></linearGradient><linearGradient id="linear-gradient-2" x1="2520.07" x2="1169.01" xlink:href="#linear-gradient" y1="-357.3" y2="1887.74"/><linearGradient id="linear-gradient-3" x1="2041.3" x2="690.24" xlink:href="#linear-gradient" y1="-645.42" y2="1599.62"/><linearGradient id="linear-gradient-4" x1="1619.85" x2="268.79" xlink:href="#linear-gradient" y1="-899.05" y2="1345.99"/><linearGradient id="linear-gradient-5" x1="1528.45" x2="177.39" xlink:href="#linear-gradient" y1="-954.05" y2="1290.99"/></defs><path class="cls-1" d="M937.88,1621.13a207.48,207.48,0,0,1-154.34-68.69,75,75,0,0,1,111.67-100.15,57.3,57.3,0,0,0,42.67,18.84c31.07,0,56.34-24.36,56.34-54.29s-25.27-54.29-56.34-54.29h-649a75,75,0,1,1,0-150h649c113.78,0,206.34,91.65,206.34,204.29S1051.66,1621.13,937.88,1621.13Z"/><path class="cls-2" d="M1589.8,1621.13a207.48,207.48,0,0,1-154.34-68.69,75,75,0,0,1,111.67-100.15,57.3,57.3,0,0,0,42.67,18.84c31.07,0,56.34-24.36,56.34-54.29s-25.27-54.29-56.34-54.29H1240.21a75,75,0,0,1,0-150H1589.8c113.78,0,206.34,91.65,206.34,204.29S1703.58,1621.13,1589.8,1621.13Z"/><path class="cls-3" d="M1386.61,1066H653.38a75,75,0,0,1,0-150h733.23a54.29,54.29,0,1,0,0-108.57,53.67,53.67,0,0,0-40.73,18.39,75,75,0,1,1-112.45-99.27,204.42,204.42,0,0,1,153.18-69.12c112.65,0,204.29,91.64,204.29,204.28S1499.25,1066,1386.61,1066Z"/><path class="cls-4" d="M926.2,797.45H288.86a75,75,0,0,1,0-150H926.2a54.29,54.29,0,0,0,0-108.58,53.66,53.66,0,0,0-40.73,18.4A75,75,0,0,1,773,458,204.45,204.45,0,0,1,926.2,388.87c112.64,0,204.29,91.65,204.29,204.29S1038.84,797.45,926.2,797.45Z"/><path class="cls-5" d="M427,1066H288.86a75,75,0,0,1,0-150H427a75,75,0,0,1,0,150Z"/></svg>