<svg width="285" height="258" viewBox="0 0 285 258" fill="none" xmlns="http://www.w3.org/2000/svg">
<path fill-rule="evenodd" clip-rule="evenodd" d="M177.461 120C176.628 120 175.952 120.675 175.952 121.509V126.241L172.509 121.893C171.992 121.24 171.043 121.129 170.39 121.647C169.737 122.164 169.627 123.113 170.144 123.766L175.952 131.102V133.873L172.51 129.525C171.992 128.872 171.043 128.762 170.39 129.279C169.737 129.796 169.627 130.745 170.144 131.398L175.952 138.734V151.763L166.297 142.108L165.216 132.813C165.12 131.985 164.371 131.392 163.544 131.489C162.716 131.585 162.123 132.334 162.219 133.161L162.859 138.67L160.9 136.71L159.819 127.416C159.723 126.588 158.974 125.995 158.147 126.092C157.319 126.188 156.726 126.937 156.822 127.764L157.462 133.273L154.559 130.37C153.97 129.781 153.015 129.781 152.425 130.37C151.836 130.959 151.836 131.915 152.425 132.504L155.399 135.477L149.765 134.822C148.937 134.726 148.188 135.319 148.092 136.147C147.996 136.974 148.589 137.723 149.416 137.819L158.836 138.914L160.796 140.874L155.162 140.219C154.334 140.123 153.585 140.716 153.489 141.544C153.393 142.371 153.986 143.12 154.813 143.216L164.233 144.311L173.874 153.952H160.108L152.772 148.144C152.119 147.627 151.17 147.737 150.653 148.39C150.136 149.043 150.246 149.992 150.899 150.51L155.247 153.952H152.476L145.14 148.144C144.486 147.627 143.537 147.737 143.02 148.39C142.503 149.043 142.613 149.992 143.267 150.51L147.615 153.952H143.509C142.675 153.952 142 154.628 142 155.461C142 156.294 142.675 156.97 143.509 156.97H147.713L143.267 160.49C142.613 161.008 142.503 161.957 143.02 162.61C143.537 163.263 144.486 163.373 145.14 162.856L152.574 156.97H155.346L150.899 160.49C150.246 161.008 150.136 161.957 150.653 162.61C151.17 163.263 152.119 163.373 152.772 162.856L160.207 156.97H173.841L164.108 166.703L154.813 167.784C153.985 167.88 153.392 168.629 153.489 169.456C153.585 170.284 154.334 170.877 155.161 170.781L160.67 170.141L158.711 172.1L149.416 173.181C148.588 173.277 147.995 174.026 148.091 174.853C148.188 175.681 148.937 176.274 149.764 176.178L155.273 175.538L152.37 178.441C151.781 179.03 151.781 179.986 152.37 180.575C152.959 181.164 153.914 181.164 154.504 180.575L157.477 177.602L156.822 183.236C156.726 184.063 157.319 184.812 158.147 184.908C158.974 185.005 159.723 184.412 159.819 183.584L160.914 174.164L162.874 172.205L162.219 177.839C162.123 178.666 162.716 179.415 163.544 179.511C164.371 179.608 165.12 179.015 165.216 178.187L166.311 168.767L175.952 159.126V172.892L170.144 180.228C169.627 180.881 169.737 181.83 170.39 182.347C171.043 182.865 171.992 182.754 172.51 182.101L175.952 177.753V180.524L170.144 187.86C169.627 188.514 169.737 189.462 170.39 189.98C171.043 190.497 171.992 190.387 172.51 189.733L175.952 185.385V189.491C175.952 190.325 176.628 191 177.461 191C178.294 191 178.97 190.325 178.97 189.491V185.287L182.49 189.733C183.008 190.387 183.957 190.497 184.61 189.98C185.263 189.462 185.373 188.514 184.856 187.86L178.97 180.426V177.654L182.49 182.101C183.008 182.754 183.957 182.865 184.61 182.347C185.263 181.83 185.373 180.881 184.856 180.228L178.97 172.793V159.048L188.246 168.324L189.341 177.744C189.437 178.572 190.186 179.165 191.014 179.068C191.841 178.972 192.434 178.223 192.338 177.396L191.683 171.762L193.643 173.721L194.738 183.141C194.834 183.969 195.583 184.562 196.411 184.465C197.238 184.369 197.831 183.62 197.735 182.793L197.08 177.159L200.496 180.575C201.086 181.164 202.041 181.164 202.63 180.575C203.219 179.985 203.219 179.03 202.63 178.441L199.284 175.095L204.793 175.735C205.621 175.831 206.37 175.238 206.466 174.41C206.562 173.583 205.969 172.834 205.141 172.738L195.847 171.657L193.887 169.698L199.396 170.338C200.224 170.434 200.973 169.841 201.069 169.013C201.165 168.186 200.572 167.437 199.744 167.341L190.45 166.26L181.159 156.97H194.167L201.601 162.856C202.255 163.373 203.204 163.263 203.721 162.61C204.238 161.957 204.128 161.008 203.475 160.49L199.028 156.97H201.799L209.234 162.856C209.887 163.373 210.836 163.263 211.353 162.61C211.871 161.957 211.76 161.008 211.107 160.49L206.66 156.97H211.491C212.325 156.97 213 156.294 213 155.461C213 154.628 212.325 153.952 211.491 153.952H206.759L211.107 150.51C211.76 149.992 211.871 149.043 211.353 148.39C210.836 147.737 209.887 147.627 209.234 148.144L201.898 153.952H199.126L203.475 150.51C204.128 149.992 204.238 149.043 203.721 148.39C203.204 147.737 202.255 147.627 201.601 148.144L194.265 153.952H181.126L190.324 144.754L199.744 143.659C200.572 143.563 201.165 142.814 201.068 141.987C200.972 141.159 200.223 140.566 199.396 140.662L193.762 141.317L195.721 139.357L205.141 138.262C205.969 138.166 206.562 137.417 206.465 136.59C206.369 135.762 205.62 135.169 204.793 135.265L199.159 135.92L202.575 132.504C203.164 131.915 203.164 130.959 202.575 130.37C201.985 129.781 201.03 129.781 200.441 130.37L197.095 133.716L197.735 128.207C197.831 127.38 197.238 126.631 196.411 126.535C195.583 126.438 194.834 127.031 194.738 127.859L193.658 137.153L191.698 139.113L192.338 133.604C192.434 132.777 191.841 132.028 191.014 131.932C190.186 131.835 189.437 132.428 189.341 133.256L188.261 142.55L178.97 151.841V138.833L184.856 131.398C185.373 130.745 185.263 129.796 184.61 129.279C183.957 128.762 183.008 128.872 182.49 129.525L178.97 133.972V131.2L184.856 123.766C185.373 123.113 185.263 122.164 184.61 121.647C183.957 121.129 183.008 121.24 182.49 121.893L178.97 126.339V121.509C178.97 120.675 178.294 120 177.461 120Z" fill="url(#paint0_linear_205_1561)"/>
<path fill-rule="evenodd" clip-rule="evenodd" d="M145.473 209C144.898 209 144.432 209.466 144.432 210.041V213.307L142.056 210.306C141.699 209.855 141.044 209.779 140.593 210.136C140.142 210.493 140.066 211.148 140.423 211.599L144.432 216.662V218.575L142.056 215.574C141.699 215.123 141.044 215.047 140.593 215.404C140.142 215.761 140.066 216.416 140.423 216.867L144.432 221.929V230.921L137.768 224.257L137.023 217.843C136.956 217.272 136.439 216.862 135.868 216.929C135.297 216.995 134.888 217.512 134.954 218.083L135.396 221.885L134.043 220.533L133.298 214.118C133.232 213.547 132.715 213.138 132.143 213.204C131.572 213.27 131.163 213.787 131.229 214.359L131.671 218.16L129.668 216.157C129.261 215.75 128.602 215.75 128.195 216.157C127.788 216.563 127.788 217.223 128.195 217.629L130.247 219.681L126.359 219.229C125.787 219.163 125.271 219.572 125.204 220.143C125.138 220.715 125.547 221.232 126.118 221.298L132.619 222.053L133.972 223.406L130.083 222.954C129.512 222.888 128.995 223.297 128.929 223.868C128.862 224.439 129.272 224.956 129.843 225.023L136.344 225.778L142.997 232.432H133.497L128.434 228.423C127.983 228.066 127.329 228.142 126.972 228.593C126.615 229.044 126.691 229.699 127.142 230.056L130.142 232.432H128.23L123.167 228.423C122.716 228.066 122.061 228.142 121.704 228.593C121.347 229.044 121.423 229.699 121.874 230.056L124.875 232.432H122.041C121.466 232.432 121 232.898 121 233.473C121 234.048 121.466 234.514 122.041 234.514H124.943L121.874 236.944C121.423 237.301 121.347 237.956 121.704 238.407C122.061 238.858 122.716 238.934 123.167 238.577L128.298 234.514H130.21L127.142 236.944C126.691 237.301 126.615 237.956 126.972 238.407C127.329 238.858 127.983 238.934 128.434 238.577L133.565 234.514H142.975L136.257 241.232L129.843 241.977C129.272 242.044 128.862 242.561 128.929 243.132C128.995 243.703 129.512 244.112 130.083 244.046L133.885 243.604L132.533 244.957L126.118 245.702C125.547 245.768 125.138 246.285 125.204 246.857C125.27 247.428 125.787 247.837 126.358 247.771L130.16 247.329L128.157 249.333C127.75 249.739 127.75 250.398 128.157 250.805C128.563 251.212 129.223 251.212 129.629 250.805L131.681 248.753L131.229 252.641C131.163 253.213 131.572 253.73 132.143 253.796C132.715 253.862 133.231 253.453 133.298 252.882L134.053 246.381L135.406 245.029L134.954 248.917C134.888 249.488 135.297 250.005 135.868 250.071C136.439 250.138 136.956 249.728 137.023 249.157L137.778 242.656L144.432 236.003V245.503L140.423 250.566C140.066 251.017 140.142 251.671 140.593 252.028C141.044 252.385 141.699 252.309 142.056 251.858L144.432 248.858V250.77L140.423 255.833C140.066 256.284 140.142 256.939 140.593 257.296C141.044 257.653 141.699 257.577 142.056 257.126L144.432 254.125V256.959C144.432 257.534 144.898 258 145.473 258C146.048 258 146.514 257.534 146.514 256.959V254.057L148.944 257.126C149.301 257.577 149.956 257.653 150.407 257.296C150.858 256.939 150.934 256.284 150.577 255.833L146.514 250.702V248.79L148.944 251.858C149.301 252.309 149.956 252.385 150.407 252.028C150.858 251.671 150.934 251.017 150.577 250.566L146.514 245.435V235.949L152.916 242.351L153.672 248.851C153.738 249.423 154.255 249.832 154.826 249.766C155.398 249.699 155.807 249.182 155.74 248.611L155.289 244.723L156.641 246.075L157.397 252.576C157.463 253.147 157.98 253.557 158.551 253.49C159.122 253.424 159.531 252.907 159.465 252.336L159.013 248.448L161.371 250.805C161.777 251.212 162.437 251.212 162.843 250.805C163.25 250.398 163.25 249.739 162.843 249.333L160.534 247.023L164.336 247.465C164.907 247.531 165.424 247.122 165.49 246.551C165.557 245.98 165.148 245.463 164.576 245.396L158.162 244.651L156.809 243.298L160.611 243.74C161.182 243.807 161.699 243.397 161.766 242.826C161.832 242.255 161.423 241.738 160.852 241.672L154.437 240.926L148.025 234.514H157.002L162.133 238.577C162.584 238.934 163.239 238.858 163.596 238.407C163.953 237.956 163.877 237.301 163.426 236.944L160.357 234.514H162.27L167.401 238.577C167.852 238.934 168.507 238.858 168.864 238.407C169.221 237.956 169.144 237.301 168.694 236.944L165.625 234.514H168.959C169.534 234.514 170 234.048 170 233.473C170 232.898 169.534 232.432 168.959 232.432H165.693L168.694 230.056C169.144 229.699 169.221 229.044 168.864 228.593C168.507 228.142 167.852 228.066 167.401 228.423L162.338 232.432H160.425L163.426 230.056C163.877 229.699 163.953 229.044 163.596 228.593C163.239 228.142 162.584 228.066 162.133 228.423L157.07 232.432H148.003L154.351 226.084L160.851 225.328C161.423 225.262 161.832 224.745 161.766 224.174C161.699 223.603 161.182 223.193 160.611 223.26L156.723 223.712L158.075 222.359L164.576 221.604C165.147 221.537 165.557 221.02 165.49 220.449C165.424 219.878 164.907 219.469 164.336 219.535L160.448 219.987L162.805 217.629C163.212 217.223 163.212 216.563 162.805 216.157C162.398 215.75 161.739 215.75 161.332 216.157L159.023 218.466L159.465 214.664C159.531 214.093 159.122 213.576 158.551 213.51C157.98 213.443 157.463 213.853 157.396 214.424L156.651 220.838L155.299 222.191L155.74 218.389C155.807 217.818 155.397 217.301 154.826 217.234C154.255 217.168 153.738 217.577 153.672 218.149L152.926 224.563L146.514 230.975V221.997L150.577 216.867C150.934 216.416 150.858 215.761 150.407 215.404C149.956 215.047 149.301 215.123 148.944 215.574L146.514 218.643V216.73L150.577 211.599C150.934 211.148 150.858 210.493 150.407 210.136C149.956 209.779 149.301 209.855 148.944 210.306L146.514 213.375V210.041C146.514 209.466 146.048 209 145.473 209Z" fill="url(#paint1_linear_205_1561)"/>
<path fill-rule="evenodd" clip-rule="evenodd" d="M100.468 150C99.7752 150 99.2138 150.561 99.2138 151.254V155.186L96.353 151.573C95.9231 151.03 95.1346 150.938 94.5917 151.368C94.0489 151.798 93.9572 152.587 94.3871 153.129L99.2138 159.226V161.529L96.353 157.915C95.9232 157.373 95.1346 157.281 94.5918 157.711C94.0489 158.141 93.9573 158.929 94.3871 159.472L99.2138 165.568V176.395L91.1902 168.371L90.2926 160.648C90.2126 159.96 89.5903 159.467 88.9025 159.547C88.2147 159.627 87.7219 160.249 87.8018 160.937L88.3338 165.515L86.7053 163.886L85.8077 156.163C85.7278 155.475 85.1054 154.982 84.4176 155.062C83.7298 155.142 83.237 155.764 83.317 156.452L83.8489 161.03L81.4365 158.617C80.9469 158.128 80.153 158.128 79.6634 158.617C79.1738 159.107 79.1738 159.901 79.6634 160.39L82.134 162.861L77.4522 162.317C76.7644 162.237 76.1421 162.73 76.0621 163.418C75.9822 164.105 76.475 164.728 77.1628 164.808L84.9903 165.717L86.6188 167.346L81.9371 166.802C81.2493 166.722 80.627 167.215 80.547 167.902C80.4671 168.59 80.9599 169.213 81.6477 169.293L89.4752 170.202L97.4868 178.214H86.0477L79.9516 173.387C79.4087 172.957 78.6202 173.049 78.1903 173.592C77.7605 174.135 77.8522 174.923 78.395 175.353L82.0082 178.214H79.7051L73.609 173.387C73.0661 172.957 72.2776 173.049 71.8478 173.592C71.418 174.135 71.5096 174.923 72.0525 175.353L75.6657 178.214H72.2537C71.5613 178.214 71 178.775 71 179.468C71 180.16 71.5613 180.721 72.2538 180.721H75.7476L72.0525 183.647C71.5096 184.077 71.418 184.865 71.8478 185.408C72.2776 185.951 73.0661 186.043 73.609 185.613L79.787 180.721H82.0901L78.395 183.647C77.8522 184.077 77.7605 184.865 78.1903 185.408C78.6202 185.951 79.4087 186.043 79.9516 185.613L86.1296 180.721H97.4597L89.3711 188.81L81.6474 189.707C80.9596 189.787 80.4669 190.41 80.5468 191.098C80.6267 191.785 81.2491 192.278 81.9369 192.198L86.5148 191.666L84.8863 193.295L77.1626 194.192C76.4748 194.272 75.982 194.895 76.0619 195.582C76.1418 196.27 76.7642 196.763 77.452 196.683L82.03 196.151L79.6173 198.564C79.1277 199.053 79.1277 199.847 79.6173 200.337C80.1069 200.826 80.9008 200.826 81.3904 200.337L83.861 197.866L83.3169 202.548C83.237 203.236 83.7297 203.858 84.4175 203.938C85.1053 204.018 85.7277 203.525 85.8076 202.837L86.7173 195.01L88.3459 193.381L87.8018 198.063C87.7218 198.751 88.2146 199.373 88.9024 199.453C89.5902 199.533 90.2126 199.04 90.2925 198.352L91.2022 190.525L99.2138 182.513V193.952L94.3871 200.048C93.9573 200.591 94.0489 201.38 94.5918 201.81C95.1346 202.24 95.9232 202.148 96.353 201.605L99.2138 197.992V200.295L94.3871 206.391C93.9573 206.934 94.0489 207.722 94.5918 208.152C95.1346 208.582 95.9232 208.49 96.353 207.947L99.2138 204.334V207.746C99.2138 208.439 99.7752 209 100.468 209C101.16 209 101.721 208.439 101.721 207.746V204.252L104.647 207.947C105.077 208.49 105.865 208.582 106.408 208.152C106.951 207.722 107.043 206.934 106.613 206.391L101.721 200.213V197.91L104.647 201.605C105.077 202.148 105.865 202.24 106.408 201.81C106.951 201.38 107.043 200.591 106.613 200.048L101.721 193.87V182.448L109.43 190.157L110.34 197.984C110.419 198.672 111.042 199.165 111.73 199.085C112.417 199.005 112.91 198.383 112.83 197.695L112.286 193.013L113.915 194.642L114.824 202.469C114.904 203.157 115.527 203.65 116.214 203.57C116.902 203.49 117.395 202.868 117.315 202.18L116.771 197.498L119.61 200.337C120.099 200.826 120.893 200.826 121.383 200.337C121.872 199.847 121.872 199.053 121.383 198.564L118.602 195.783L123.18 196.315C123.868 196.395 124.49 195.902 124.57 195.214C124.65 194.527 124.157 193.904 123.469 193.824L115.746 192.927L114.117 191.298L118.695 191.83C119.383 191.91 120.005 191.417 120.085 190.729C120.165 190.042 119.672 189.419 118.985 189.339L111.261 188.442L103.54 180.721H114.35L120.528 185.613C121.071 186.043 121.859 185.951 122.289 185.408C122.719 184.865 122.627 184.077 122.084 183.647L118.389 180.721H120.692L126.87 185.613C127.413 186.043 128.202 185.951 128.632 185.408C129.062 184.865 128.97 184.077 128.427 183.647L124.732 180.721H128.746C129.439 180.721 130 180.16 130 179.468C130 178.775 129.439 178.214 128.746 178.214H124.814L128.427 175.353C128.97 174.923 129.062 174.135 128.632 173.592C128.202 173.049 127.413 172.957 126.87 173.387L120.774 178.214H118.471L122.084 175.353C122.627 174.923 122.719 174.135 122.289 173.592C121.859 173.049 121.071 172.957 120.528 173.387L114.432 178.214H103.513L111.157 170.57L118.984 169.661C119.672 169.581 120.165 168.958 120.085 168.27C120.005 167.583 119.383 167.09 118.695 167.17L114.013 167.714L115.642 166.085L123.469 165.176C124.157 165.096 124.65 164.473 124.57 163.786C124.49 163.098 123.868 162.605 123.18 162.685L118.498 163.229L121.337 160.391C121.826 159.901 121.826 159.107 121.337 158.617C120.847 158.128 120.053 158.128 119.564 158.617L116.783 161.398L117.315 156.82C117.395 156.132 116.902 155.51 116.214 155.43C115.527 155.35 114.904 155.843 114.824 156.531L113.927 164.254L112.298 165.883L112.83 161.305C112.91 160.617 112.417 159.995 111.73 159.915C111.042 159.835 110.419 160.328 110.339 161.016L109.442 168.739L101.721 176.46V165.65L106.613 159.472C107.043 158.929 106.951 158.141 106.408 157.711C105.865 157.281 105.077 157.373 104.647 157.915L101.721 161.61V159.307L106.613 153.129C107.043 152.587 106.951 151.798 106.408 151.368C105.865 150.938 105.077 151.03 104.647 151.573L101.721 155.268V151.254C101.721 150.561 101.16 150 100.468 150Z" fill="url(#paint2_linear_205_1561)"/>
<g filter="url(#filter0_bd_205_1561)">
<mask id="path-4-outside-1_205_1561" maskUnits="userSpaceOnUse" x="15" y="11" width="255" height="155" fill="black">
<rect fill="white" x="15" y="11" width="255" height="155"/>
<path fill-rule="evenodd" clip-rule="evenodd" d="M197.882 82.0141C197.882 84.4233 197.758 86.8036 197.517 89.149C204.953 82.6871 214.664 78.7752 225.288 78.7752C248.68 78.7752 267.643 97.7383 267.643 121.13C267.643 144.523 248.68 163.486 225.288 163.486H60.6379C60.6256 163.486 60.6133 163.486 60.601 163.486C60.5887 163.486 60.5764 163.486 60.5641 163.486H60.3518V163.485C36.3863 163.351 17 143.882 17 119.885C17 95.9758 36.2441 76.5617 60.0878 76.2867C62.999 40.8508 92.6809 13 128.868 13C166.983 13 197.882 43.8987 197.882 82.0141Z"/>
</mask>
<path fill-rule="evenodd" clip-rule="evenodd" d="M197.882 82.0141C197.882 84.4233 197.758 86.8036 197.517 89.149C204.953 82.6871 214.664 78.7752 225.288 78.7752C248.68 78.7752 267.643 97.7383 267.643 121.13C267.643 144.523 248.68 163.486 225.288 163.486H60.6379C60.6256 163.486 60.6133 163.486 60.601 163.486C60.5887 163.486 60.5764 163.486 60.5641 163.486H60.3518V163.485C36.3863 163.351 17 143.882 17 119.885C17 95.9758 36.2441 76.5617 60.0878 76.2867C62.999 40.8508 92.6809 13 128.868 13C166.983 13 197.882 43.8987 197.882 82.0141Z" fill="url(#paint3_linear_205_1561)" shape-rendering="crispEdges"/>
<path d="M197.517 89.149L195.528 88.9447L195.011 93.9771L198.829 90.6586L197.517 89.149ZM60.3518 163.486H58.3518V165.486H60.3518V163.486ZM60.3518 163.485H62.3518V161.496L60.363 161.485L60.3518 163.485ZM60.0878 76.2867L60.1109 78.2866L61.932 78.2655L62.0811 76.4504L60.0878 76.2867ZM199.507 89.3534C199.755 86.9401 199.882 84.4916 199.882 82.0141H195.882C195.882 84.3549 195.762 86.667 195.528 88.9447L199.507 89.3534ZM225.288 76.7752C214.163 76.7752 203.991 80.8733 196.206 87.6395L198.829 90.6586C205.915 84.5008 215.164 80.7752 225.288 80.7752V76.7752ZM269.643 121.13C269.643 96.6337 249.785 76.7752 225.288 76.7752V80.7752C247.576 80.7752 265.643 98.8429 265.643 121.13H269.643ZM225.288 165.486C249.785 165.486 269.643 145.627 269.643 121.13H265.643C265.643 143.418 247.576 161.486 225.288 161.486V165.486ZM225.288 161.486H60.6379V165.486H225.288V161.486ZM60.601 165.486C60.6079 165.486 60.6146 165.486 60.6207 165.486C60.6269 165.486 60.6324 165.486 60.6379 165.486V161.486C60.631 161.486 60.6242 161.486 60.6182 161.486C60.6119 161.486 60.6064 161.486 60.601 161.486V165.486ZM60.5641 165.486C60.5695 165.486 60.5751 165.486 60.5813 165.486C60.5873 165.486 60.5941 165.486 60.601 165.486V161.486C60.5956 161.486 60.59 161.486 60.5838 161.486C60.5778 161.486 60.571 161.486 60.5641 161.486V165.486ZM60.5641 161.486H60.3518V165.486H60.5641V161.486ZM62.3518 163.486V163.485H58.3518V163.486H62.3518ZM15 119.885C15 144.983 35.2756 165.345 60.3407 165.485L60.363 161.485C37.4971 161.357 19 142.781 19 119.885H15ZM60.0647 74.2868C35.1268 74.5744 15 94.879 15 119.885H19C19 97.0727 37.3614 78.5489 60.1109 78.2866L60.0647 74.2868ZM128.868 11C91.6312 11 61.0902 39.6581 58.0945 76.1229L62.0811 76.4504C64.9077 42.0436 93.7306 15 128.868 15V11ZM199.882 82.0141C199.882 42.7941 168.088 11 128.868 11V15C165.879 15 195.882 45.0033 195.882 82.0141H199.882Z" fill="url(#paint4_linear_205_1561)" mask="url(#path-4-outside-1_205_1561)"/>
</g>
<defs>
<filter id="filter0_bd_205_1561" x="0" y="0" width="284.643" height="184.486" filterUnits="userSpaceOnUse" color-interpolation-filters="sRGB">
<feFlood flood-opacity="0" result="BackgroundImageFix"/>
<feGaussianBlur in="BackgroundImageFix" stdDeviation="5"/>
<feComposite in2="SourceAlpha" operator="in" result="effect1_backgroundBlur_205_1561"/>
<feColorMatrix in="SourceAlpha" type="matrix" values="0 0 0 0 0 0 0 0 0 0 0 0 0 0 0 0 0 0 127 0" result="hardAlpha"/>
<feOffset dy="4"/>
<feGaussianBlur stdDeviation="7.5"/>
<feComposite in2="hardAlpha" operator="out"/>
<feColorMatrix type="matrix" values="0 0 0 0 0 0 0 0 0 0 0 0 0 0 0 0 0 0 0.1 0"/>
<feBlend mode="normal" in2="effect1_backgroundBlur_205_1561" result="effect2_dropShadow_205_1561"/>
<feBlend mode="normal" in="SourceGraphic" in2="effect2_dropShadow_205_1561" result="shape"/>
</filter>
<linearGradient id="paint0_linear_205_1561" x1="203.731" y1="125.857" x2="152.788" y2="175.558" gradientUnits="userSpaceOnUse">
<stop stop-color="#D6E9FF"/>
<stop offset="1" stop-color="#2898FF"/>
</linearGradient>
<linearGradient id="paint1_linear_205_1561" x1="163.603" y1="213.042" x2="128.446" y2="247.343" gradientUnits="userSpaceOnUse">
<stop stop-color="#D6E9FF"/>
<stop offset="1" stop-color="#2898FF"/>
</linearGradient>
<linearGradient id="paint2_linear_205_1561" x1="122.298" y1="154.867" x2="79.9651" y2="196.168" gradientUnits="userSpaceOnUse">
<stop stop-color="#D6E9FF"/>
<stop offset="1" stop-color="#2898FF"/>
</linearGradient>
<linearGradient id="paint3_linear_205_1561" x1="94.9027" y1="12.3724" x2="155.193" y2="164.113" gradientUnits="userSpaceOnUse">
<stop stop-color="white"/>
<stop offset="0.708333" stop-color="#9DDCFF" stop-opacity="0.69"/>
</linearGradient>
<linearGradient id="paint4_linear_205_1561" x1="134.193" y1="-39.1111" x2="217.515" y2="225.081" gradientUnits="userSpaceOnUse">
<stop stop-color="white"/>
<stop offset="0.713542" stop-color="#85C6EC" stop-opacity="0.71"/>
</linearGradient>
</defs>
</svg>
