<?xml version="1.0" encoding="UTF-8" standalone="no"?>
<svg
   enable-background="new 0 0 32 32"
   version="1.1"
   viewBox="0 0 32 32"
   xml:space="preserve"
   id="svg238"
   sodipodi:docname="favicon.svg"
   inkscape:version="1.2.1 (9c6d41e410, 2022-07-14)"
   xmlns:inkscape="http://www.inkscape.org/namespaces/inkscape"
   xmlns:sodipodi="http://sodipodi.sourceforge.net/DTD/sodipodi-0.dtd"
   xmlns="http://www.w3.org/2000/svg"
   xmlns:svg="http://www.w3.org/2000/svg"><defs
     id="defs242" /><sodipodi:namedview
     id="namedview240"
     pagecolor="#ffffff"
     bordercolor="#000000"
     borderopacity="0.25"
     inkscape:showpageshadow="2"
     inkscape:pageopacity="0.0"
     inkscape:pagecheckerboard="0"
     inkscape:deskcolor="#d1d1d1"
     showgrid="false"
     inkscape:zoom="40.260892"
     inkscape:cx="13.015112"
     inkscape:cy="15.399559"
     inkscape:window-width="3840"
     inkscape:window-height="2054"
     inkscape:window-x="-11"
     inkscape:window-y="-11"
     inkscape:window-maximized="1"
     inkscape:current-layer="svg238" /><g
     id="Smart_Watch41"
     transform="matrix(1.581029,0,0,1.581029,-9.2734276,-9.3231037)" /><g
     id="Smart_Watch40"
     transform="matrix(1.581029,0,0,1.581029,-9.2734276,-9.3231037)" /><g
     id="Smart_Watch39"
     transform="matrix(1.581029,0,0,1.581029,-9.2734276,-9.3231037)" /><g
     id="Smart_Watch38"
     transform="matrix(1.581029,0,0,1.581029,-9.2734276,-9.3231037)" /><g
     id="Smart_Watch37"
     transform="matrix(1.581029,0,0,1.581029,-9.2734276,-9.3231037)" /><g
     id="Smart_Watch36"
     transform="matrix(1.581029,0,0,1.581029,-9.2734276,-9.3231037)" /><g
     id="Smart_Watch35"
     transform="matrix(1.581029,0,0,1.581029,-9.2734276,-9.3231037)" /><g
     id="Smart_Watch34"
     transform="matrix(1.581029,0,0,1.581029,-9.2734276,-9.3231037)" /><g
     id="Smart_Watch33"
     transform="matrix(1.581029,0,0,1.581029,-9.2734276,-9.3231037)" /><g
     id="Smart_Watch32"
     transform="matrix(1.581029,0,0,1.581029,-9.2734276,-9.3231037)" /><g
     id="Smart_Watch31"
     transform="matrix(1.581029,0,0,1.581029,-9.2734276,-9.3231037)" /><g
     id="Smart_Watch30"
     transform="matrix(1.581029,0,0,1.581029,-9.2734276,-9.3231037)" /><g
     id="Smart_Watch29"
     transform="matrix(1.581029,0,0,1.581029,-9.2734276,-9.3231037)" /><g
     id="Smart_Watch28"
     transform="matrix(1.581029,0,0,1.581029,-9.2734276,-9.3231037)" /><g
     id="Smart_Watch27"
     transform="matrix(1.581029,0,0,1.581029,-9.2734276,-9.3231037)" /><g
     id="Smart_Watch26"
     transform="matrix(1.581029,0,0,1.581029,-9.2734276,-9.3231037)" /><g
     id="Smart_Watch25"
     transform="matrix(1.581029,0,0,1.581029,-9.2734276,-9.3231037)" /><g
     id="Smart_Watch24"
     transform="matrix(1.581029,0,0,1.581029,-9.2734276,-9.3231037)" /><g
     id="Smart_Watch23"
     transform="matrix(1.581029,0,0,1.581029,-9.2734276,-9.3231037)" /><g
     id="Smart_Watch22"
     transform="matrix(1.581029,0,0,1.581029,-9.2734276,-9.3231037)" /><g
     id="Smart_Watch21"
     transform="matrix(1.581029,0,0,1.581029,-9.2734276,-9.3231037)" /><g
     id="Smart_Watch20"
     transform="matrix(1.581029,0,0,1.581029,-9.2734276,-9.3231037)" /><g
     id="Smart_Watch19"
     transform="matrix(1.581029,0,0,1.581029,-9.2734276,-9.3231037)" /><g
     id="Smart_Watch18"
     transform="matrix(1.581029,0,0,1.581029,-9.2734276,-9.3231037)" /><g
     id="Smart_Watch17"
     transform="matrix(1.581029,0,0,1.581029,-9.2734276,-9.3231037)" /><g
     id="Smart_Watch16"
     transform="matrix(1.581029,0,0,1.581029,-9.2734276,-9.3231037)" /><g
     id="Smart_Watch15"
     transform="matrix(1.5797871,0,0,1.5797871,-9.2411227,-9.2908143)"><g
       id="g222"><path
         d="M 26,9 C 26,7.35 24.65,6 23,6 H 21.82 10.18 9 C 7.35,6 6,7.35 6,9 v 14 c 0,1.65 1.35,3 3,3 H 10.18 21.82 23 c 1.65,0 3,-1.35 3,-3 0.02804,-4.722962 0,-9.3012 0,-14 z M 12,21 C 10.35,21 9,19.65 9,18 9,16.69 9.84,15.58 11,15.17 V 15 c 0,-2.21 1.79,-4 4,-4 1.47,0 2.79,0.8 3.48,2.04 2.38,-0.33 4.52,1.58 4.52,3.96 0,2.21 -1.79,4 -4,4 z"
         fill="#364f6b"
         id="path214"
         sodipodi:nodetypes="csccssssccsccsscsscsss" /><path
         d="m 19,15 c -0.25,0 -0.5,0.05 -0.73,0.15 C 18,15.25 17.7,15.24 17.44,15.12 17.19,14.99 17,14.75 16.92,14.48 16.69,13.61 15.9,13 15,13 c -1.1,0 -2,0.9 -2,2 0,0.24 0.04,0.46 0.11,0.65 0.13,0.33 0.07,0.71 -0.15,0.9901 -0.23,0.28 -0.58,0.41 -0.94,0.36 C 11.45,17 11,17.45 11,18 c 0,0.55 0.45,1 1,1 h 7 c 1.1,0 2,-0.9 2,-2 0,-1.1 -0.9,-2 -2,-2 z"
         fill="#364f6b"
         id="path220" /></g></g><g
     id="Smart_Watch14"
     transform="matrix(1.581029,0,0,1.581029,-9.2734276,-9.3231037)" /><g
     id="Smart_Watch13"
     transform="matrix(1.581029,0,0,1.581029,-9.2734276,-9.3231037)" /><g
     id="Smart_Watch12"
     transform="matrix(1.581029,0,0,1.581029,-9.2734276,-9.3231037)" /><g
     id="Smart_Watch11"
     transform="matrix(1.581029,0,0,1.581029,-9.2734276,-9.3231037)" /><g
     id="Smart_Watch10"
     transform="matrix(1.581029,0,0,1.581029,-9.2734276,-9.3231037)" /><g
     id="Smart_Watch09"
     transform="matrix(1.581029,0,0,1.581029,-9.2734276,-9.3231037)" /><g
     id="Smart_Watch08"
     transform="matrix(1.581029,0,0,1.581029,-9.2734276,-9.3231037)" /><g
     id="Smart_Watch07"
     transform="matrix(1.581029,0,0,1.581029,-9.2734276,-9.3231037)" /><g
     id="Smart_Watch06"
     transform="matrix(1.581029,0,0,1.581029,-9.2734276,-9.3231037)" /><g
     id="Smart_Watch05"
     transform="matrix(1.581029,0,0,1.581029,-9.2734276,-9.3231037)" /><g
     id="Smart_Watch04"
     transform="matrix(1.581029,0,0,1.581029,-9.2734276,-9.3231037)" /><g
     id="Smart_Watch03"
     transform="matrix(1.581029,0,0,1.581029,-9.2734276,-9.3231037)" /><g
     id="Smart_Watch02"
     transform="matrix(1.581029,0,0,1.581029,-9.2734276,-9.3231037)" /></svg>
