<?xml version="1.0" encoding="UTF-8" standalone="no"?>
<svg
   width="22"
   height="18"
   viewBox="0 0 22 18"
   fill="none"
   version="1.1"
   id="svg1376"
   sodipodi:docname="wind-icon.svg"
   inkscape:version="1.2.1 (9c6d41e410, 2022-07-14)"
   xmlns:inkscape="http://www.inkscape.org/namespaces/inkscape"
   xmlns:sodipodi="http://sodipodi.sourceforge.net/DTD/sodipodi-0.dtd"
   xmlns="http://www.w3.org/2000/svg"
   xmlns:svg="http://www.w3.org/2000/svg">
  <sodipodi:namedview
     id="namedview1378"
     pagecolor="#ffffff"
     bordercolor="#000000"
     borderopacity="0.25"
     inkscape:showpageshadow="2"
     inkscape:pageopacity="0.0"
     inkscape:pagecheckerboard="0"
     inkscape:deskcolor="#d1d1d1"
     showgrid="false"
     inkscape:zoom="57.055556"
     inkscape:cx="11.041869"
     inkscape:cy="9.0087633"
     inkscape:window-width="3840"
     inkscape:window-height="2054"
     inkscape:window-x="-11"
     inkscape:window-y="-11"
     inkscape:window-maximized="1"
     inkscape:current-layer="svg1376" />
  <g
     filter="url(#filter0_ddi_1_45)"
     id="g1331"
     transform="translate(-0.19279455,1.805258)">
    <path
       d="M 4.4375,8.3125 C 4.19589,8.3125 4,8.50837 4,8.75 4,8.99163 4.19589,9.1875 4.4375,9.1875 H 14.7341 C 14.5852,9.44489 14.5,9.74375 14.5,10.0625 c 0,0.9665 0.7835,1.75 1.75,1.75 0.9665,0 1.75,-0.7835 1.75,-1.75 0,-0.96651 -0.7835,-1.75 -1.75,-1.75 z"
       fill="#c01b3c"
       id="path1321" />
    <path
       d="m 13.9558,6.93501 c -0.0595,0.2321 0.0808,0.47235 0.3195,0.49286 0.4312,0.03704 0.8673,-0.03294 1.2685,-0.2068 0.5346,-0.2317 0.977,-0.63471 1.2574,-1.14553 C 17.0815,5.56471 17.184,4.97512 17.0923,4.39966 17.0007,3.8242 16.7202,3.29559 16.295,2.89713 15.8698,2.49867 15.3241,2.25301 14.7439,2.19886 14.1637,2.14471 13.582,2.28515 13.0905,2.59805 c -0.4916,0.31289 -0.8651,0.78046 -1.0617,1.32902 -0.1474,0.41163 -0.189,0.8513 -0.1241,1.27918 0.0359,0.2369 0.2848,0.3613 0.5125,0.28687 0.2278,-0.07443 0.3462,-0.32049 0.3297,-0.55953 -0.0166,-0.24069 0.0164,-0.4838 0.0988,-0.71384 0.1316,-0.36723 0.3816,-0.68024 0.7107,-0.88971 0.3291,-0.20947 0.7185,-0.30349 1.1069,-0.26724 0.3884,0.03625 0.7537,0.20071 1.0384,0.46746 0.2846,0.26675 0.4724,0.62062 0.5337,1.00586 0.0614,0.38524 -0.0072,0.77995 -0.1949,1.12192 -0.1877,0.34197 -0.4838,0.61177 -0.8418,0.76688 -0.2242,0.09716 -0.4646,0.14586 -0.7059,0.14487 -0.2396,-9.7e-4 -0.4775,0.13312 -0.537,0.36522 z"
       fill="#c01b3c"
       id="path1323" />
    <path
       d="M 5.75,7 C 5.75,6.75838 5.94588,6.5625 6.1875,6.5625 H 14.5 v 0.875 H 6.1875 C 5.94588,7.4375 5.75,7.24163 5.75,7 Z"
       fill="#c01b3c"
       id="path1325" />
    <path
       d="m 6.625,10.5 c 0,-0.2416 0.19588,-0.4375 0.4375,-0.4375 h 4.375 c 0.2416,0 0.4375,0.1959 0.4375,0.4375 0,0.2416 -0.1959,0.4375 -0.4375,0.4375 H 7.0625 C 6.82088,10.9375 6.625,10.7416 6.625,10.5 Z"
       fill="#c01b3c"
       id="path1327" />
    <path
       d="M 9.6875,5.6875 C 10.4124,5.6875 11,5.09988 11,4.375 11,3.65012 10.4124,3.0625 9.6875,3.0625 8.96262,3.0625 8.375,3.65012 8.375,4.375 c 0,0.15341 0.02628,0.30065 0.07466,0.4375 H 4.4375 C 4.19589,4.8125 4,5.00837 4,5.25 4,5.49163 4.19589,5.6875 4.4375,5.6875 Z"
       fill="#c01b3c"
       id="path1329" />
  </g>
  <defs
     id="defs1374">
    <filter
       id="filter0_ddi_1_45"
       x="-1.25"
       y="0.4375"
       width="24.5"
       height="20.125"
       filterUnits="userSpaceOnUse"
       color-interpolation-filters="sRGB">
      <feFlood
         flood-opacity="0"
         result="BackgroundImageFix"
         id="feFlood1333" />
      <feColorMatrix
         in="SourceAlpha"
         type="matrix"
         values="0 0 0 0 0 0 0 0 0 0 0 0 0 0 0 0 0 0 127 0"
         result="hardAlpha"
         id="feColorMatrix1335" />
      <feOffset
         id="feOffset1337" />
      <feGaussianBlur
         stdDeviation="0.875"
         id="feGaussianBlur1339" />
      <feComposite
         in2="hardAlpha"
         operator="out"
         id="feComposite1341" />
      <feColorMatrix
         type="matrix"
         values="0 0 0 0 0.717647 0 0 0 0 0.0941176 0 0 0 0 0.203922 0 0 0 0.4 0"
         id="feColorMatrix1343" />
      <feBlend
         mode="normal"
         in2="BackgroundImageFix"
         result="effect1_dropShadow_1_45"
         id="feBlend1345" />
      <feColorMatrix
         in="SourceAlpha"
         type="matrix"
         values="0 0 0 0 0 0 0 0 0 0 0 0 0 0 0 0 0 0 127 0"
         result="hardAlpha"
         id="feColorMatrix1347" />
      <feOffset
         dy="3.5"
         id="feOffset1349" />
      <feGaussianBlur
         stdDeviation="2.625"
         id="feGaussianBlur1351" />
      <feComposite
         in2="hardAlpha"
         operator="out"
         id="feComposite1353" />
      <feColorMatrix
         type="matrix"
         values="0 0 0 0 0.752941 0 0 0 0 0.105882 0 0 0 0 0.235294 0 0 0 0.38 0"
         id="feColorMatrix1355" />
      <feBlend
         mode="normal"
         in2="effect1_dropShadow_1_45"
         result="effect2_dropShadow_1_45"
         id="feBlend1357" />
      <feBlend
         mode="normal"
         in="SourceGraphic"
         in2="effect2_dropShadow_1_45"
         result="shape"
         id="feBlend1359" />
      <feColorMatrix
         in="SourceAlpha"
         type="matrix"
         values="0 0 0 0 0 0 0 0 0 0 0 0 0 0 0 0 0 0 127 0"
         result="hardAlpha"
         id="feColorMatrix1361" />
      <feOffset
         dx="-0.875"
         dy="-0.875"
         id="feOffset1363" />
      <feGaussianBlur
         stdDeviation="0.4375"
         id="feGaussianBlur1365" />
      <feComposite
         in2="hardAlpha"
         operator="arithmetic"
         k2="-1"
         k3="1"
         id="feComposite1367" />
      <feColorMatrix
         type="matrix"
         values="0 0 0 0 0 0 0 0 0 0 0 0 0 0 0 0 0 0 0.25 0"
         id="feColorMatrix1369" />
      <feBlend
         mode="normal"
         in2="shape"
         result="effect3_innerShadow_1_45"
         id="feBlend1371" />
    </filter>
  </defs>
</svg>
